<svg xmlns="http://www.w3.org/2000/svg" width="96" height="97" viewBox="0 0 96 97" fill="none">
    <path d="M84.6784 8.73658C81.8112 8.24271 78.9078 7.9885 75.9984 7.97658C66.0718 7.96844 56.3523 10.8149 47.9984 16.1766C39.623 10.8853 29.905 8.1087 19.9984 8.17658C17.089 8.1885 14.1856 8.44271 11.3184 8.93658C10.3792 9.09849 9.52871 9.59041 8.92004 10.3238C8.31137 11.0571 7.98453 11.9837 7.99839 12.9366V60.9366C7.98982 61.5243 8.11089 62.1067 8.35299 62.6423C8.59508 63.178 8.95225 63.6537 9.39908 64.0356C9.84591 64.4175 10.3714 64.6962 10.9382 64.8519C11.505 65.0077 12.0992 65.0366 12.6784 64.9366C18.4105 63.9441 24.2832 64.1088 29.9506 65.4209C35.6181 66.733 40.9657 69.166 45.6784 72.5766L46.1584 72.8566H46.5984C47.042 73.0414 47.5178 73.1366 47.9984 73.1366C48.479 73.1366 48.9548 73.0414 49.3984 72.8566H49.8384L50.3184 72.5766C54.9982 69.0898 60.3304 66.5779 65.999 65.19C71.6675 63.8021 77.557 63.5663 83.3184 64.4966C83.8976 64.5966 84.4918 64.5677 85.0586 64.4119C85.6254 64.2562 86.1509 63.9775 86.5977 63.5956C87.0445 63.2137 87.4017 62.738 87.6438 62.2023C87.8859 61.6667 88.007 61.0843 87.9984 60.4966V12.4966C87.9568 11.5852 87.6048 10.7154 87.001 10.0315C86.3971 9.34764 85.5776 8.89073 84.6784 8.73658ZM43.9984 61.8966C36.5979 58.0033 28.3605 55.9714 19.9984 55.9766C18.6784 55.9766 17.3584 55.9766 15.9984 55.9766V15.9766C17.3306 15.8998 18.6662 15.8998 19.9984 15.9766C28.5319 15.9671 36.8792 18.4713 43.9984 23.1766V61.8966ZM79.9984 56.1366C78.6384 56.1366 77.3184 56.1366 75.9984 56.1366C67.6363 56.1314 59.3989 58.1633 51.9984 62.0566V23.1766C59.1175 18.4713 67.4648 15.9671 75.9984 15.9766C77.3306 15.8998 78.6662 15.8998 79.9984 15.9766V56.1366ZM84.6784 72.7366C81.8112 72.2427 78.9078 71.9885 75.9984 71.9766C66.0718 71.9684 56.3523 74.8149 47.9984 80.1766C39.6444 74.8149 29.9249 71.9684 19.9984 71.9766C17.089 71.9885 14.1856 72.2427 11.3184 72.7366C10.7977 72.8192 10.2985 73.004 9.84943 73.2802C9.40039 73.5564 9.01039 73.9187 8.70185 74.3462C8.39331 74.7737 8.17233 75.258 8.0516 75.7712C7.93087 76.2844 7.91279 76.8164 7.99839 77.3366C8.20166 78.3753 8.80835 79.2911 9.68555 79.8834C10.5627 80.4757 11.6389 80.6962 12.6784 80.4966C18.4105 79.5041 24.2832 79.6688 29.9506 80.9809C35.6181 82.293 40.9657 84.726 45.6784 88.1366C46.3558 88.6189 47.1668 88.8781 47.9984 88.8781C48.83 88.8781 49.6409 88.6189 50.3184 88.1366C55.0311 84.726 60.3787 82.293 66.0461 80.9809C71.7136 79.6688 77.5863 79.5041 83.3184 80.4966C84.3578 80.6962 85.434 80.4757 86.3112 79.8834C87.1884 79.2911 87.7951 78.3753 87.9984 77.3366C88.084 76.8164 88.0659 76.2844 87.9452 75.7712C87.8244 75.258 87.6035 74.7737 87.2949 74.3462C86.9864 73.9187 86.5964 73.5564 86.1473 73.2802C85.6983 73.004 85.1991 72.8192 84.6784 72.7366Z" fill="#191F28"/>
</svg>